<svg width="33" height="32" viewBox="0 0 33 32" fill="none" xmlns="http://www.w3.org/2000/svg">
<g id="Social/Apple">
<g id="Vector">
<path d="M22.3086 15.163C22.3205 14.2431 22.5648 13.3411 23.0189 12.541C23.473 11.7409 24.1222 11.0687 24.9059 10.5869C24.408 9.87584 23.7512 9.29067 22.9876 8.87786C22.224 8.46505 21.3747 8.23598 20.5071 8.20884C18.6563 8.01457 16.8621 9.31629 15.919 9.31629C14.9576 9.31629 13.5056 8.22812 11.942 8.26029C10.9306 8.29297 9.94486 8.58708 9.08092 9.11396C8.21698 9.64085 7.50426 10.3825 7.01219 11.2668C4.88066 14.9572 6.47059 20.3808 8.51242 23.3639C9.53399 24.8246 10.7279 26.4563 12.2901 26.3984C13.8189 26.335 14.3898 25.4236 16.2351 25.4236C18.0633 25.4236 18.599 26.3984 20.1929 26.3616C21.8333 26.335 22.8668 24.8944 23.8525 23.4199C24.5865 22.379 25.1513 21.2287 25.526 20.0115C24.573 19.6084 23.7597 18.9337 23.1876 18.0715C22.6154 17.2093 22.3097 16.1978 22.3086 15.163Z" fill="white"/>
<path d="M19.298 6.24704C20.1924 5.17333 20.633 3.79326 20.5263 2.3999C19.1599 2.54342 17.8976 3.1965 16.9911 4.22902C16.5479 4.73343 16.2085 5.32024 15.9922 5.95592C15.7759 6.5916 15.687 7.26367 15.7306 7.93372C16.4141 7.94076 17.0903 7.79262 17.7082 7.50046C18.3261 7.20829 18.8697 6.77973 19.298 6.24704Z" fill="white"/>
</g>
</g>
</svg>
