<svg width="33" height="32" viewBox="0 0 33 32" fill="none" xmlns="http://www.w3.org/2000/svg">
<g id="Social/Discord">
<path id="Vector" d="M25.0715 7.21761C23.4398 6.46893 21.6901 5.91734 19.8607 5.60142C19.8274 5.59533 19.7941 5.61056 19.7769 5.64104C19.5519 6.04127 19.3026 6.5634 19.1281 6.97379C17.1604 6.67921 15.2029 6.67921 13.2755 6.97379C13.101 6.55428 12.8427 6.04127 12.6166 5.64104C12.5995 5.61158 12.5662 5.59634 12.5329 5.60142C10.7044 5.91633 8.95473 6.46792 7.32207 7.21761C7.30793 7.2237 7.29582 7.23387 7.28778 7.24706C3.96895 12.2053 3.05979 17.0417 3.50579 21.8181C3.50781 21.8415 3.52093 21.8638 3.53909 21.878C5.72876 23.4861 7.84982 24.4623 9.9315 25.1094C9.96482 25.1195 10.0001 25.1074 10.0213 25.0799C10.5137 24.4075 10.9527 23.6984 11.329 22.9528C11.3513 22.9091 11.3301 22.8573 11.2847 22.84C10.5884 22.5759 9.92544 22.2539 9.28771 21.8882C9.23727 21.8587 9.23323 21.7866 9.27964 21.7521C9.41384 21.6515 9.54808 21.5469 9.67622 21.4412C9.6994 21.4219 9.73171 21.4179 9.75897 21.43C13.9486 23.3429 18.4843 23.3429 22.6245 21.43C22.6517 21.4168 22.684 21.4209 22.7082 21.4402C22.8364 21.5459 22.9706 21.6515 23.1058 21.7521C23.1522 21.7866 23.1492 21.8587 23.0988 21.8882C22.461 22.261 21.7981 22.5759 21.1008 22.839C21.0554 22.8563 21.0352 22.9091 21.0574 22.9528C21.4419 23.6974 21.8808 24.4064 22.3642 25.0789C22.3843 25.1074 22.4207 25.1195 22.454 25.1094C24.5457 24.4623 26.6668 23.4861 28.8565 21.878C28.8756 21.8638 28.8878 21.8425 28.8898 21.8191C29.4236 16.2971 27.9957 11.5003 25.1048 7.24807C25.0977 7.23387 25.0856 7.2237 25.0715 7.21761ZM11.9547 18.9098C10.6933 18.9098 9.65401 17.7518 9.65401 16.3296C9.65401 14.9074 10.6732 13.7494 11.9547 13.7494C13.2463 13.7494 14.2755 14.9176 14.2553 16.3296C14.2553 17.7518 13.2362 18.9098 11.9547 18.9098ZM20.4611 18.9098C19.1997 18.9098 18.1604 17.7518 18.1604 16.3296C18.1604 14.9074 19.1796 13.7494 20.4611 13.7494C21.7527 13.7494 22.7819 14.9176 22.7617 16.3296C22.7617 17.7518 21.7527 18.9098 20.4611 18.9098Z" fill="#5865F2"/>
</g>
</svg>
