<svg width="40" height="40" viewBox="0 0 40 40" fill="none" xmlns="http://www.w3.org/2000/svg">
<g id="Social/Github">
<path id="Vector" fill-rule="evenodd" clip-rule="evenodd" d="M19.999 6C12.1197 6 5.75 12.4166 5.75 20.3549C5.75 26.7004 9.83127 32.0717 15.4931 33.9728C16.201 34.1157 16.4602 33.6639 16.4602 33.2838C16.4602 32.9511 16.4369 31.8104 16.4369 30.6218C12.4732 31.4776 11.6478 28.9106 11.6478 28.9106C11.0108 27.247 10.0669 26.8194 10.0669 26.8194C8.76961 25.94 10.1614 25.94 10.1614 25.94C11.6005 26.0351 12.3556 27.4135 12.3556 27.4135C13.6293 29.5998 15.6818 28.9821 16.5075 28.6017C16.6253 27.6748 17.003 27.0332 17.4041 26.6768C14.2427 26.344 10.9166 25.1082 10.9166 19.5942C10.9166 18.0257 11.4824 16.7423 12.379 15.7443C12.2375 15.3878 11.742 13.9141 12.5207 11.9415C12.5207 11.9415 13.7238 11.5612 16.4366 13.415C17.5981 13.1008 18.7958 12.9409 19.999 12.9396C21.2021 12.9396 22.4286 13.1061 23.5611 13.415C26.2742 11.5612 27.4773 11.9415 27.4773 11.9415C28.2561 13.9141 27.7602 15.3878 27.6188 15.7443C28.539 16.7423 29.0815 18.0257 29.0815 19.5942C29.0815 25.1082 25.7553 26.32 22.5703 26.6768C23.0895 27.1282 23.5375 27.9837 23.5375 29.3385C23.5375 31.2635 23.5142 32.8084 23.5142 33.2836C23.5142 33.6639 23.7738 34.1157 24.4813 33.9731C30.1432 32.0714 34.2244 26.7004 34.2244 20.3549C34.2478 12.4166 27.8547 6 19.999 6Z" fill="white"/>
</g>
</svg>
