<svg width="40" height="40" viewBox="0 0 40 40" fill="none" xmlns="http://www.w3.org/2000/svg">
<g id="Social/Google">
<g id="Vector">
<path d="M32.74 20.2955C32.74 19.3736 32.6573 18.4873 32.5036 17.6364H20.26V22.6709H27.2564C26.9491 24.29 26.0273 25.6609 24.6445 26.5827V29.8564H28.8636C31.3218 27.5873 32.74 24.2545 32.74 20.2955Z" fill="#4285F4"/>
<path d="M20.26 33C23.77 33 26.7127 31.8418 28.8636 29.8564L24.6445 26.5827C23.4864 27.3627 22.0091 27.8355 20.26 27.8355C16.88 27.8355 14.0082 25.5545 12.98 22.4818H8.65455V25.8382C10.7936 30.0809 15.1782 33 20.26 33Z" fill="#34A853"/>
<path d="M12.98 22.47C12.72 21.69 12.5664 20.8627 12.5664 20C12.5664 19.1373 12.72 18.31 12.98 17.53V14.1736H8.65455C7.76818 15.9227 7.26 17.8964 7.26 20C7.26 22.1036 7.76818 24.0773 8.65455 25.8264L12.0227 23.2027L12.98 22.47Z" fill="#FBBC05"/>
<path d="M20.26 12.1764C22.1745 12.1764 23.8764 12.8382 25.2355 14.1145L28.9582 10.3918C26.7009 8.28818 23.77 7 20.26 7C15.1782 7 10.7936 9.91909 8.65455 14.1736L12.98 17.53C14.0082 14.4573 16.88 12.1764 20.26 12.1764Z" fill="#EA4335"/>
</g>
</g>
</svg>
