<svg width="32" height="32" viewBox="0 0 32 32" fill="none" xmlns="http://www.w3.org/2000/svg">
<g clip-path="url(#clip0_1_154)">
<circle cx="16" cy="15.9086" r="16" fill="black"/>
<path d="M20.7269 15.3305C20.7364 14.5946 20.9319 13.873 21.2952 13.2329C21.6584 12.5928 22.1777 12.055 22.8047 11.6696C22.4064 11.1007 21.881 10.6326 21.2701 10.3024C20.6592 9.97212 19.9798 9.78886 19.2857 9.76715C17.8051 9.61174 16.3697 10.6531 15.6152 10.6531C14.8461 10.6531 13.6845 9.78258 12.4336 9.80831C11.6244 9.83445 10.8359 10.0697 10.1447 10.4912C9.45359 10.9128 8.88341 11.5061 8.48975 12.2135C6.78453 15.1658 8.05647 19.5048 9.68993 21.8912C10.5072 23.0598 11.4623 24.3651 12.7121 24.3188C13.9351 24.2681 14.3918 23.5389 15.8681 23.5389C17.3306 23.5389 17.7592 24.3188 19.0343 24.2894C20.3466 24.2681 21.1734 23.1156 21.962 21.936C22.5492 21.1033 23.001 20.1831 23.3008 19.2093C22.5384 18.8868 21.8878 18.347 21.43 17.6573C20.9723 16.9675 20.7278 16.1583 20.7269 15.3305Z" fill="white"/>
<path d="M18.3184 8.19771C19.0339 7.33874 19.3864 6.23468 19.3011 5.12C18.2079 5.23482 17.1981 5.75728 16.4729 6.58329C16.1183 6.98682 15.8468 7.45627 15.6737 7.96481C15.5007 8.47336 15.4296 9.01101 15.4645 9.54705C16.0113 9.55268 16.5522 9.43417 17.0465 9.20044C17.5409 8.96671 17.9757 8.62386 18.3184 8.19771Z" fill="white"/>
</g>
<defs>
<clipPath id="clip0_1_154">
<path d="M0 16C0 7.16344 7.16344 0 16 0V0C24.8366 0 32 7.16344 32 16V16C32 24.8366 24.8366 32 16 32V32C7.16344 32 0 24.8366 0 16V16Z" fill="white"/>
</clipPath>
</defs>
</svg>
