<svg width="32" height="32" viewBox="0 0 32 32" fill="none" xmlns="http://www.w3.org/2000/svg">
<g clip-path="url(#clip0_1_125)">
<circle cx="16" cy="15.9086" r="16" fill="#5865F2"/>
<path d="M23.0972 8.97401C21.7919 8.37507 20.3921 7.9338 18.9286 7.68106C18.9019 7.67618 18.8753 7.68837 18.8615 7.71275C18.6815 8.03294 18.4821 8.45064 18.3425 8.77896C16.7683 8.54329 15.2023 8.54329 13.6604 8.77896C13.5208 8.44334 13.3141 8.03294 13.1333 7.71275C13.1196 7.68919 13.0929 7.677 13.0663 7.68106C11.6035 7.93299 10.2038 8.37426 8.89765 8.97401C8.88634 8.97888 8.87665 8.98702 8.87022 8.99757C6.21516 12.9642 5.48783 16.8333 5.84463 20.6544C5.84625 20.6731 5.85674 20.691 5.87127 20.7024C7.62301 21.9888 9.31986 22.7698 10.9852 23.2874C11.0119 23.2956 11.0401 23.2858 11.0571 23.2639C11.451 22.7259 11.8021 22.1587 12.1032 21.5621C12.121 21.5272 12.104 21.4858 12.0677 21.4719C11.5107 21.2607 10.9804 21.003 10.4702 20.7105C10.4298 20.6869 10.4266 20.6292 10.4637 20.6016C10.5711 20.5211 10.6785 20.4374 10.781 20.3529C10.7995 20.3375 10.8254 20.3342 10.8472 20.344C14.1989 21.8742 17.8275 21.8742 21.1396 20.344C21.1614 20.3334 21.1872 20.3367 21.2066 20.3521C21.3091 20.4366 21.4165 20.5211 21.5247 20.6016C21.5618 20.6292 21.5594 20.6869 21.519 20.7105C21.0088 21.0087 20.4785 21.2607 19.9206 21.4711C19.8843 21.4849 19.8682 21.5272 19.886 21.5621C20.1935 22.1578 20.5447 22.7251 20.9313 23.263C20.9475 23.2858 20.9765 23.2956 21.0032 23.2874C22.6766 22.7698 24.3734 21.9888 26.1252 20.7024C26.1405 20.691 26.1502 20.6739 26.1518 20.6552C26.5788 16.2376 25.4366 12.4002 23.1238 8.99838C23.1182 8.98702 23.1085 8.97888 23.0972 8.97401ZM12.6038 18.3277C11.5947 18.3277 10.7632 17.4013 10.7632 16.2636C10.7632 15.1259 11.5785 14.1994 12.6038 14.1994C13.637 14.1994 14.4604 15.134 14.4443 16.2636C14.4443 17.4013 13.6289 18.3277 12.6038 18.3277ZM19.4089 18.3277C18.3998 18.3277 17.5683 17.4013 17.5683 16.2636C17.5683 15.1259 18.3836 14.1994 19.4089 14.1994C20.4421 14.1994 21.2655 15.134 21.2494 16.2636C21.2494 17.4013 20.4421 18.3277 19.4089 18.3277Z" fill="white"/>
</g>
<defs>
<clipPath id="clip0_1_125">
<path d="M0 16C0 7.16344 7.16344 0 16 0V0C24.8366 0 32 7.16344 32 16V16C32 24.8366 24.8366 32 16 32V32C7.16344 32 0 24.8366 0 16V16Z" fill="white"/>
</clipPath>
</defs>
</svg>
