<svg width="40" height="40" viewBox="0 0 40 40" fill="none" xmlns="http://www.w3.org/2000/svg">
<path d="M10.3324 6.5H29.3195V33.5H26.5324V21.1323H26.505C26.197 17.7141 23.3243 15.0355 19.8259 15.0355C16.3276 15.0355 13.4548 17.7141 13.1468 21.1323H13.1195V33.5H10.3324V6.5Z" fill="#7C65C1"/>
<path d="M5.28076 10.3323L6.41302 14.1645H7.37108V29.6677C6.89006 29.6677 6.50012 30.0577 6.50012 30.5387V31.5839H6.32592C5.8449 31.5839 5.45496 31.9738 5.45496 32.4548V33.5H15.2098V32.4548C15.2098 31.9738 14.8198 31.5839 14.3388 31.5839H14.1646V30.5387C14.1646 30.0577 13.7747 29.6677 13.2937 29.6677H12.2485V10.3323H5.28076Z" fill="#7C65C1"/>
<path d="M26.7066 29.6677C26.2255 29.6677 25.8356 30.0577 25.8356 30.5387V31.5839H25.6614C25.1804 31.5839 24.7904 31.9738 24.7904 32.4548V33.5H34.5453V32.4548C34.5453 31.9738 34.1553 31.5839 33.6743 31.5839H33.5001V30.5387C33.5001 30.0577 33.1102 29.6677 32.6291 29.6677V14.1645H33.5872L34.7195 10.3323H27.7517V29.6677H26.7066Z" fill="#7C65C1"/>
</svg>
