<svg width="32" height="32" viewBox="0 0 32 32" fill="none" xmlns="http://www.w3.org/2000/svg">
<g clip-path="url(#clip0_1_173)">
<circle cx="16" cy="15.9086" r="16" fill="#1B1F23"/>
<path fill-rule="evenodd" clip-rule="evenodd" d="M15.9992 4.8C9.69574 4.8 4.6 9.93331 4.6 16.2839C4.6 21.3603 7.86502 25.6573 12.3945 27.1782C12.9608 27.2925 13.1682 26.9311 13.1682 26.6271C13.1682 26.3608 13.1495 25.4483 13.1495 24.4975C9.97854 25.182 9.31821 23.1285 9.31821 23.1285C8.80861 21.7976 8.05355 21.4555 8.05355 21.4555C7.01569 20.752 8.12915 20.752 8.12915 20.752C9.28041 20.8281 9.88451 21.9308 9.88451 21.9308C10.9035 23.6799 12.5454 23.1857 13.206 22.8814C13.3003 22.1399 13.6024 21.6265 13.9233 21.3414C11.3942 21.0752 8.73325 20.0865 8.73325 15.6754C8.73325 14.4205 9.18591 13.3939 9.90318 12.5954C9.79001 12.3103 9.39358 11.1312 10.0166 9.55321C10.0166 9.55321 10.9791 9.24895 13.1493 10.732C14.0784 10.4806 15.0367 10.3528 15.9992 10.3517C16.9617 10.3517 17.9429 10.4849 18.8489 10.732C21.0194 9.24895 21.9819 9.55321 21.9819 9.55321C22.6049 11.1312 22.2082 12.3103 22.095 12.5954C22.8312 13.3939 23.2652 14.4205 23.2652 15.6754C23.2652 20.0865 20.6043 21.056 18.0563 21.3414C18.4716 21.7026 18.83 22.387 18.83 23.4708C18.83 25.0108 18.8113 26.2467 18.8113 26.6268C18.8113 26.9311 19.019 27.2925 19.5851 27.1784C24.1145 25.6571 27.3795 21.3603 27.3795 16.2839C27.3982 9.93331 22.2838 4.8 15.9992 4.8Z" fill="white"/>
</g>
<defs>
<clipPath id="clip0_1_173">
<path d="M0 16C0 7.16344 7.16344 0 16 0V0C24.8366 0 32 7.16344 32 16V16C32 24.8366 24.8366 32 16 32V32C7.16344 32 0 24.8366 0 16V16Z" fill="white"/>
</clipPath>
</defs>
</svg>
