<svg width="32" height="32" viewBox="0 0 32 32" fill="none" xmlns="http://www.w3.org/2000/svg">
<g clip-path="url(#clip0_1_184)">
<path d="M26.192 16.2364C26.192 15.4989 26.1258 14.7898 26.0029 14.1091H16.208V18.1367H21.8051C21.5593 19.432 20.8218 20.5287 19.7156 21.2662V23.8851H23.0909C25.0575 22.0698 26.192 19.4036 26.192 16.2364Z" fill="#4285F4"/>
<path d="M16.208 26.4C19.016 26.4 21.3702 25.4735 23.0909 23.8851L19.7156 21.2662C18.7891 21.8902 17.6073 22.2684 16.208 22.2684C13.504 22.2684 11.2065 20.4436 10.384 17.9855H6.92364V20.6705C8.63491 24.0647 12.1425 26.4 16.208 26.4Z" fill="#34A853"/>
<path d="M10.384 17.976C10.176 17.352 10.0531 16.6902 10.0531 16C10.0531 15.3098 10.176 14.648 10.384 14.024V11.3389H6.92364C6.21454 12.7382 5.808 14.3171 5.808 16C5.808 17.6829 6.21454 19.2618 6.92364 20.6611L9.61818 18.5622L10.384 17.976Z" fill="#FBBC05"/>
<path d="M16.208 9.74109C17.7396 9.74109 19.1011 10.2705 20.1884 11.2916L23.1665 8.31345C21.3607 6.63054 19.016 5.6 16.208 5.6C12.1425 5.6 8.63491 7.93527 6.92364 11.3389L10.384 14.024C11.2065 11.5658 13.504 9.74109 16.208 9.74109Z" fill="#EA4335"/>
</g>
<defs>
<clipPath id="clip0_1_184">
<path d="M0 16C0 7.16344 7.16344 0 16 0V0C24.8366 0 32 7.16344 32 16V16C32 24.8366 24.8366 32 16 32V32C7.16344 32 0 24.8366 0 16V16Z" fill="white"/>
</clipPath>
</defs>
</svg>
